<svg width="23" height="22" viewBox="0 0 23 22" fill="none" xmlns="http://www.w3.org/2000/svg">
<path d="M13.6728 9.10144C12.9499 9.10144 12.2477 9.24165 11.5859 9.51807C11.3668 9.6096 11.2634 9.86143 11.3549 10.0805C11.4465 10.2997 11.6983 10.403 11.9174 10.3115C12.4737 10.0792 13.0642 9.96135 13.6728 9.96135C16.1858 9.96135 18.2303 12.0059 18.2303 14.5189C18.2303 17.0319 16.1858 19.0764 13.6728 19.0764C11.1598 19.0764 9.11528 17.0319 9.11528 14.5189C9.11528 13.9113 9.23274 13.3214 9.46445 12.7659C9.55585 12.5468 9.45228 12.295 9.23313 12.2036C9.01411 12.1123 8.7622 12.2158 8.67079 12.4349C8.39515 13.0959 8.25537 13.797 8.25537 14.5189C8.25537 17.5061 10.6856 19.9363 13.6728 19.9363C16.66 19.9363 19.0902 17.5061 19.0902 14.5189C19.0902 11.5317 16.66 9.10144 13.6728 9.10144Z" fill="white"/>
<path d="M13.6728 18.0444C15.6169 18.0444 17.1985 16.4628 17.1985 14.5188C17.1985 12.5748 15.6169 10.9932 13.6728 10.9932C11.7288 10.9932 10.1472 12.5748 10.1472 14.5188C10.1472 16.4628 11.7288 18.0444 13.6728 18.0444ZM13.6728 11.8531C15.1427 11.8531 16.3386 13.0489 16.3386 14.5188C16.3386 15.9886 15.1427 17.1845 13.6728 17.1845C12.203 17.1845 11.0071 15.9887 11.0071 14.5188C11.0071 13.0489 12.203 11.8531 13.6728 11.8531Z" fill="white"/>
<path d="M19.8331 7.0376H18.5252L17.024 4.49713C16.9467 4.3662 16.8059 4.28589 16.6539 4.28589H10.6918C10.5397 4.28589 10.399 4.3662 10.3217 4.49713L8.82047 7.0376H6.36333V6.52165C6.36333 5.66815 5.66899 4.97382 4.81549 4.97382C3.96199 4.97382 3.26765 5.66815 3.26765 6.52165V7.0376H2.18056C0.97819 7.0376 0 8.01579 0 9.2182V19.8194C0 21.0218 0.97819 22 2.18056 22H19.8331C21.0354 22 22.0136 21.0218 22.0136 19.8194V9.2182C22.0137 8.01579 21.0354 7.0376 19.8331 7.0376ZM10.9371 5.1458H16.4085L17.5264 7.0376H9.81926L10.9371 5.1458ZM4.12756 6.52165C4.12756 6.14235 4.43619 5.83372 4.81549 5.83372C5.1948 5.83372 5.50342 6.14235 5.50342 6.52165V7.0376H4.12756V6.52165ZM21.1538 19.8194C21.1538 20.5477 20.5613 21.1401 19.8331 21.1401H2.18056C1.45234 21.1401 0.859909 20.5476 0.859909 19.8194V9.2182C0.859909 8.48994 1.45234 7.89751 2.18056 7.89751H19.8331C20.5613 7.89751 21.1537 8.48994 21.1537 9.2182V19.8194H21.1538Z" fill="white"/>
<path d="M13.6729 13.6803C14.1352 13.6803 14.5113 14.0565 14.5113 14.5188C14.5113 14.7562 14.7038 14.9487 14.9412 14.9487C15.1787 14.9487 15.3712 14.7562 15.3712 14.5188C15.3712 13.5823 14.6093 12.8204 13.6729 12.8204C13.4354 12.8204 13.2429 13.013 13.2429 13.2504C13.2429 13.4878 13.4354 13.6803 13.6729 13.6803Z" fill="white"/>
<path d="M13.6729 3.15471C13.9103 3.15471 14.1028 2.96217 14.1028 2.72475V0.429955C14.1028 0.192534 13.9103 0 13.6729 0C13.4354 0 13.2429 0.192491 13.2429 0.429955V2.72475C13.2429 2.96221 13.4354 3.15471 13.6729 3.15471Z" fill="white"/>
<path d="M15.7188 3.15474C15.8288 3.15474 15.9389 3.11273 16.0228 3.02881L17.6003 1.45126C17.7682 1.28336 17.7682 1.01112 17.6003 0.843176C17.4324 0.675322 17.1601 0.675322 16.9922 0.843176L15.4147 2.42077C15.2468 2.58866 15.2468 2.86091 15.4147 3.02885C15.4987 3.11278 15.6087 3.15474 15.7188 3.15474Z" fill="white"/>
<path d="M11.3228 3.02879C11.4068 3.11272 11.5168 3.15472 11.6269 3.15472C11.7369 3.15472 11.8469 3.11272 11.9309 3.02879C12.0988 2.86089 12.0988 2.58865 11.9309 2.42071L10.3534 0.84316C10.1855 0.675348 9.91323 0.675305 9.74533 0.84316C9.57743 1.01106 9.57739 1.2833 9.74529 1.45124L11.3228 3.02879Z" fill="white"/>
<path d="M5.93342 10.5632H3.69765C3.46019 10.5632 3.2677 10.7558 3.2677 10.9932C3.2677 11.2307 3.46019 11.4231 3.69765 11.4231H5.93342C6.17088 11.4231 6.36337 11.2307 6.36337 10.9932C6.36337 10.7557 6.17088 10.5632 5.93342 10.5632Z" fill="white"/>
<path d="M10.1452 11.4231C10.2582 11.4231 10.3692 11.3771 10.4491 11.2972C10.5291 11.2172 10.5751 11.1067 10.5751 10.9932C10.5751 10.8801 10.5291 10.7692 10.4491 10.6892C10.3692 10.6093 10.2582 10.5632 10.1452 10.5632C10.0321 10.5632 9.92116 10.6092 9.84119 10.6892C9.76078 10.7692 9.71521 10.8802 9.71521 10.9932C9.71521 11.1063 9.76078 11.2172 9.84119 11.2972C9.92116 11.3771 10.0317 11.4231 10.1452 11.4231Z" fill="white"/>
</svg>
