<svg width="17" height="17" viewBox="0 0 17 17" fill="none" xmlns="http://www.w3.org/2000/svg">
<path d="M15.7648 16.3359H15.0365V5.76195C15.0365 5.26978 14.6361 4.86938 14.144 4.86938H12.5162C12.024 4.86938 11.6236 5.26981 11.6236 5.76195V16.3359H9.7745V10.5528C9.7745 10.0606 9.3741 9.66023 8.88193 9.66023H7.25418C6.76201 9.66023 6.36162 10.0607 6.36162 10.5528V16.3359H4.51247V13.3409C4.51247 12.8487 4.11204 12.4483 3.6199 12.4483H1.99212C1.49995 12.4483 1.09955 12.8488 1.09955 13.3409V16.3359H0.332031C0.14865 16.3359 0 16.4846 0 16.668C0 16.8514 0.14865 17 0.332031 17H15.7648C15.9482 17 16.0968 16.8514 16.0968 16.668C16.0968 16.4846 15.9482 16.3359 15.7648 16.3359ZM3.84834 16.3359H1.76358V13.3409C1.76358 13.2149 1.86608 13.1124 1.99209 13.1124H3.61984C3.74584 13.1124 3.84834 13.2149 3.84834 13.3409V16.3359ZM9.1104 16.3359H7.02565V10.5528C7.02565 10.4268 7.12814 10.3243 7.25415 10.3243H8.8819C9.00787 10.3243 9.1104 10.4268 9.1104 10.5528V16.3359ZM14.3725 16.3359H12.2877V5.76195C12.2877 5.63594 12.3902 5.53345 12.5162 5.53345H14.144C14.27 5.53345 14.3725 5.63594 14.3725 5.76195V16.3359Z" fill="white"/>
<path d="M15.0358 0.349164C15.0404 0.258553 15.0085 0.166414 14.9393 0.0972187C14.8702 0.0280234 14.778 -0.00388476 14.6874 0.000796875C14.6821 0.000564453 14.6768 0 14.6713 0H12.6625C12.4792 0 12.3305 0.14865 12.3305 0.332031C12.3305 0.515412 12.4792 0.664062 12.6625 0.664062H13.9029L10.6206 3.94646L9.38274 2.70864C9.32048 2.64639 9.23601 2.61139 9.14796 2.61139C9.0599 2.61139 8.97544 2.64639 8.91318 2.70864L2.94429 8.67757C2.81463 8.80722 2.81463 9.01747 2.94429 9.14716C3.00914 9.21194 3.0941 9.24434 3.17907 9.24434C3.26404 9.24434 3.34904 9.21194 3.41385 9.14709L9.14796 3.41295L10.3858 4.65076C10.5154 4.78042 10.7257 4.78042 10.8554 4.65076L14.3725 1.13365V2.25625C14.3725 2.43963 14.5212 2.58828 14.7045 2.58828C14.8879 2.58828 15.0366 2.43963 15.0366 2.25625V0.365234C15.0366 0.359822 15.036 0.354543 15.0358 0.349164Z" fill="white"/>
</svg>
