<svg width="19" height="20" viewBox="0 0 19 20" fill="none" xmlns="http://www.w3.org/2000/svg">
<g clip-path="url(#clip0)">
<path d="M9.51929 9.08215C9.31444 9.08215 9.14819 9.25456 9.14819 9.46699C9.14819 9.67942 9.31444 9.85183 9.51929 9.85183C9.72413 9.85183 9.89038 9.67942 9.89038 9.46699C9.89038 9.25456 9.72413 9.08215 9.51929 9.08215Z" fill="white"/>
<path d="M9.51929 9.08215C9.31444 9.08215 9.14819 9.25456 9.14819 9.46699C9.14819 9.67942 9.31444 9.85183 9.51929 9.85183C9.72413 9.85183 9.89038 9.67942 9.89038 9.46699C9.89038 9.25456 9.72413 9.08215 9.51929 9.08215Z" fill="white"/>
<path d="M12.6804 10.6215H10.825V8.69734C10.825 8.48483 10.6588 8.3125 10.4539 8.3125H8.22729C8.02238 8.3125 7.8562 8.48483 7.8562 8.69734V10.6215H6.00073C5.79581 10.6215 5.62964 10.7939 5.62964 11.0064V13.3154C5.62964 13.5279 5.79581 13.7002 6.00073 13.7002H7.8562V15.6244C7.8562 15.8369 8.02238 16.0093 8.22729 16.0093H10.4539C10.6588 16.0093 10.825 15.8369 10.825 15.6244V13.7002H12.6804C12.8853 13.7002 13.0515 13.5279 13.0515 13.3154V11.0064C13.0515 10.7939 12.8853 10.6215 12.6804 10.6215ZM12.3093 12.9306H10.4539C10.2489 12.9306 10.0828 13.1029 10.0828 13.3154V15.2396H8.59839V13.3154C8.59839 13.1029 8.43221 12.9306 8.22729 12.9306H6.37183V11.3912H8.22729C8.43221 11.3912 8.59839 11.2189 8.59839 11.0064V9.08218H10.0828V11.0064C10.0828 11.2189 10.2489 11.3912 10.4539 11.3912H12.3093V12.9306Z" fill="white"/>
<path d="M17.1445 5.23378H14.3242V2.92475C14.3242 1.65155 13.3254 0.615723 12.0977 0.615723H6.90234C5.67462 0.615723 4.67578 1.65155 4.67578 2.92475V5.23378H1.85547C0.832363 5.23378 0 6.09697 0 7.15797V17.1638C0 18.2248 0.832363 19.0879 1.85547 19.0879H17.1445C18.1676 19.0879 19 18.2248 19 17.1638V7.15797C19 6.09697 18.1676 5.23378 17.1445 5.23378ZM5.41797 2.92475C5.41797 2.07595 6.08386 1.3854 6.90234 1.3854H12.0977C12.9161 1.3854 13.582 2.07595 13.582 2.92475V5.23378H12.8398V3.30959C12.8398 2.67299 12.3404 2.15507 11.7266 2.15507H7.27344C6.65957 2.15507 6.16016 2.67299 6.16016 3.30959V5.23378H5.41797V2.92475ZM12.0977 3.30959V5.23378H6.90234V3.30959C6.90234 3.09739 7.06882 2.92475 7.27344 2.92475H11.7266C11.9312 2.92475 12.0977 3.09739 12.0977 3.30959ZM2.44922 18.3183H1.85547C1.24161 18.3183 0.742188 17.8004 0.742188 17.1638V7.15797C0.742188 6.52137 1.24161 6.00345 1.85547 6.00345H2.44922V18.3183ZM15.8086 18.3183H15.0664V11.0063C15.0664 10.7938 14.9002 10.6215 14.6953 10.6215C14.4904 10.6215 14.3242 10.7938 14.3242 11.0063V18.3183H4.67578V11.0063C4.67578 10.7938 4.50961 10.6215 4.30469 10.6215C4.09977 10.6215 3.93359 10.7938 3.93359 11.0063V18.3183H3.19141V6.00345H3.93359V7.92764C3.93359 8.14015 4.09977 8.31248 4.30469 8.31248C4.50961 8.31248 4.67578 8.14015 4.67578 7.92764V6.00345H14.3242V7.92764C14.3242 8.14015 14.4904 8.31248 14.6953 8.31248C14.9002 8.31248 15.0664 8.14015 15.0664 7.92764V6.00345H15.8086V18.3183ZM18.2578 17.1638C18.2578 17.8004 17.7584 18.3183 17.1445 18.3183H16.5508V6.00345H17.1445C17.7584 6.00345 18.2578 6.52137 18.2578 7.15797V17.1638Z" fill="white"/>
</g>
<defs>
<clipPath id="clip0">
<rect width="19" height="19.7037" fill="white"/>
</clipPath>
</defs>
</svg>
