<svg width="18" height="18" viewBox="0 0 18 18" fill="none" xmlns="http://www.w3.org/2000/svg">
<path d="M2.14696 5.9741C2.0816 5.90868 1.9909 5.87109 1.89844 5.87109C1.80598 5.87109 1.71531 5.90871 1.64988 5.9741C1.58446 6.03949 1.54688 6.1302 1.54688 6.22266C1.54688 6.31512 1.58446 6.40582 1.64988 6.47118C1.71527 6.5366 1.80598 6.57422 1.89844 6.57422C1.9909 6.57422 2.0816 6.5366 2.14696 6.47118C2.21238 6.40582 2.25 6.31512 2.25 6.22266C2.25 6.1302 2.21238 6.03949 2.14696 5.9741Z" fill="white"/>
<path d="M15.3984 0H8.28517C8.09104 0 7.93361 0.15743 7.93361 0.351562C7.93361 0.545695 8.09104 0.703125 8.28517 0.703125H15.3984C15.5923 0.703125 15.75 0.860836 15.75 1.05469V16.9453C15.75 17.1392 15.5923 17.2969 15.3984 17.2969H2.60156C2.40771 17.2969 2.25 17.1392 2.25 16.9453V7.53514C2.25 7.34101 2.09257 7.18358 1.89844 7.18358C1.7043 7.18358 1.54688 7.34101 1.54688 7.53514V16.9453C1.54688 17.5269 2.02001 18 2.60156 18H15.3984C15.98 18 16.4531 17.5269 16.4531 16.9453V1.05469C16.4531 0.473133 15.98 0 15.3984 0Z" fill="white"/>
<path d="M9.00007 1.40625C8.76087 1.40625 8.52047 1.42453 8.28556 1.46053C8.09364 1.48999 7.96191 1.66939 7.99134 1.86131C8.02076 2.05323 8.20027 2.18479 8.39212 2.15554C8.59191 2.12488 8.79645 2.10938 9.00007 2.10938C11.1906 2.10938 12.9728 3.89152 12.9728 6.08207C12.9728 7.05484 12.6211 7.94686 12.0385 8.63828C11.7807 8.19496 11.4286 7.81256 11.0012 7.51595C10.7518 7.34284 10.4838 7.20468 10.2032 7.10241C10.5234 6.78941 10.7227 6.35323 10.7227 5.87116V5.52839C10.7227 4.57847 9.94996 3.8057 9.00007 3.8057C8.05019 3.8057 7.27742 4.57847 7.27742 5.52839V5.87116C7.27742 6.35323 7.47668 6.78941 7.79692 7.10241C7.51641 7.20468 7.24841 7.34284 6.99894 7.51595C6.56951 7.814 6.21598 8.19854 5.95786 8.64454C5.51394 8.11702 5.20366 7.46817 5.08226 6.74434C5.05016 6.55291 4.86872 6.42375 4.6774 6.45578C4.48591 6.48787 4.35671 6.66914 4.3888 6.86064C4.56958 7.93853 5.12916 8.92515 5.96451 9.63872C6.80935 10.3604 7.88741 10.7579 9.00004 10.7579C11.5783 10.7579 13.6759 8.66036 13.6759 6.0821C13.6759 3.50385 11.5783 1.40625 9.00007 1.40625ZM7.98054 5.52836C7.98054 4.96617 8.43792 4.50879 9.00007 4.50879C9.56222 4.50879 10.0196 4.96617 10.0196 5.52836V5.87113C10.0196 6.43328 9.56222 6.89066 9.00007 6.89066C8.43792 6.89066 7.98054 6.43328 7.98054 5.87113V5.52836ZM9.00007 10.0548C8.04825 10.0548 7.16829 9.72239 6.47958 9.15891C6.95166 8.20083 7.91673 7.59379 9.00007 7.59379C10.0812 7.59379 11.0444 8.19833 11.5175 9.15293C10.8317 9.71617 9.95471 10.0548 9.00007 10.0548Z" fill="white"/>
<path d="M12.2469 13.9922H7.25476C7.06063 13.9922 6.9032 14.1496 6.9032 14.3438C6.9032 14.5379 7.06063 14.6953 7.25476 14.6953H12.2469C12.4411 14.6953 12.5985 14.5379 12.5985 14.3438C12.5985 14.1496 12.4411 13.9922 12.2469 13.9922Z" fill="white"/>
<path d="M6.00161 12.1264C5.93622 12.061 5.84551 12.0234 5.75305 12.0234C5.66059 12.0234 5.56989 12.0611 5.5045 12.1264C5.43911 12.1918 5.40149 12.2825 5.40149 12.375C5.40149 12.4678 5.43914 12.5582 5.5045 12.6235C5.56989 12.6889 5.66059 12.7266 5.75305 12.7266C5.84551 12.7266 5.93622 12.6889 6.00161 12.6235C6.06735 12.5582 6.10461 12.4675 6.10461 12.375C6.10461 12.2825 6.06735 12.1918 6.00161 12.1264Z" fill="white"/>
<path d="M6.00161 14.0952C5.93622 14.0298 5.84586 13.9922 5.75305 13.9922C5.66059 13.9922 5.56989 14.0298 5.5045 14.0952C5.43911 14.1606 5.40149 14.2513 5.40149 14.3438C5.40149 14.4365 5.43914 14.5269 5.5045 14.5923C5.56989 14.6577 5.66059 14.6953 5.75305 14.6953C5.84551 14.6953 5.93622 14.6577 6.00161 14.5923C6.06735 14.5269 6.10461 14.4366 6.10461 14.3438C6.10461 14.2513 6.06735 14.1606 6.00161 14.0952Z" fill="white"/>
<path d="M12.2469 12.0234H7.25476C7.06063 12.0234 6.9032 12.1809 6.9032 12.375C6.9032 12.5691 7.06063 12.7266 7.25476 12.7266H12.2469C12.4411 12.7266 12.5985 12.5691 12.5985 12.375C12.5985 12.1809 12.4411 12.0234 12.2469 12.0234Z" fill="white"/>
<path d="M5.68225 2.02603C5.54489 1.88878 5.32236 1.88878 5.18504 2.02603L4.04014 3.17093L3.64888 2.77968C3.51153 2.64243 3.28899 2.64243 3.15167 2.77968C3.01438 2.917 3.01438 3.13961 3.15167 3.27689L3.79151 3.91674C3.86017 3.98536 3.9501 4.01971 4.0401 4.01971C4.1301 4.01971 4.22003 3.98536 4.28873 3.91677L5.68225 2.52325C5.81954 2.38593 5.81954 2.16332 5.68225 2.02603Z" fill="white"/>
<path d="M4.42969 0C2.8401 0 1.54688 1.29322 1.54688 2.88281C1.54688 4.4724 2.8401 5.76562 4.42969 5.76562C6.01928 5.76562 7.3125 4.4724 7.3125 2.88281C7.3125 1.29322 6.01928 0 4.42969 0ZM4.42969 5.0625C3.2278 5.0625 2.25 4.0847 2.25 2.88281C2.25 1.68093 3.2278 0.703125 4.42969 0.703125C5.63157 0.703125 6.60938 1.68093 6.60938 2.88281C6.60938 4.0847 5.63157 5.0625 4.42969 5.0625Z" fill="white"/>
</svg>